<?xml version="1.0" encoding="utf-8"?>
<!-- Generator: Adobe Illustrator 21.1.0, SVG Export Plug-In . SVG Version: 6.00 Build 0)  -->
<svg version="1.1" id="Шар_1" xmlns="http://www.w3.org/2000/svg" xmlns:xlink="http://www.w3.org/1999/xlink" x="0px" y="0px"
	 viewBox="0 0 76 76" style="enable-background:new 0 0 76 76;" xml:space="preserve">
<style type="text/css">
	.st0{fill:#FFFFFF;}
	.st1{fill:#132945;}
	.st2{fill:#1A3556;}
	.st3{fill:#EEB296;}
	.st4{fill:#213064;}
	.st5{opacity:0.21;}
	.st6{fill:#FAEC22;}
	.st7{opacity:0.35;}
	.st8{opacity:0.27;}
</style>
<rect transform="matrix(-1 -1.224647e-16 1.224647e-16 -1 76 76)" class="st0" width="76" height="76"/>
<g>
	<path class="st1" d="M16.7,28.1c0.3,2.6,0.6,4.8,0.9,6.6c0.3,1.7,0.6,3.1,0.9,4.3c0.3,1.5,0.7,2.7,1,3.9c0.1,0.2,0.1,0.3,0.2,0.5
		c1.3,4,2.1,4.9,2.6,8.1c0.5,3.1,0.9,5.5-0.4,8c0,0.1-0.1,0.2-0.1,0.2c-0.7,1.3-1.5,1.9-1.3,2.7c0.2,0.9,1.5,1.6,4.8,2.2
		c2.7,0.5,12.7,2.3,14.3-1.3c0.2-0.4,0-0.3,0.2-1.1c0.1-0.2,0.4-1.7,1.3-3.2c0.5-0.9,1.3-1.8,2.2-2.5c1-0.7,2.5-1.1,4.9-1.4
		c0.7-0.1,1.5-0.2,2.3-0.3c1.8-0.2,3-0.3,3.7-1.2c0.3-0.5,0.8-1.7,0.5-2.9c-0.1-0.5-0.3-1.1,0-1.7c0-0.1,0.2-0.2,0.4-0.6
		c0.6-0.9,0.7-0.9,0.6-1.1c0-0.5-1-0.8-0.9-1.1c0.1-0.2,0.5-0.1,0.8-0.4c0,0,0.2-0.2,0.2-0.5c0-0.3-0.1-0.6-0.2-0.6
		c-0.2-0.3-0.3-1,0.1-2.8c0.4,0,0.9,0,1.5-0.1c0.8-0.2,1.6-0.3,1.9-0.8c0.3-0.4,0.1-0.9-0.4-1.9c-0.2-0.4-0.5-0.9-0.8-1.5
		c-1.7-3.1-2.2-4.3-2.5-5.2c-0.1-0.2-0.1-0.4-0.2-0.6C55.1,31,55,30.3,54.8,29c-0.3-2.1-0.5-3.8-0.6-5c2-1.3,3.1-3.5,2.7-5.6
		c-0.2-1.5-1.2-2.8-2.4-3.5c-1.6-1-2.6-0.1-4.6-1c-1.9-0.8-2.3-1.9-3.4-2.7c-1.5-1.1-4.4-1.5-10.7,1.7c-1-0.3-2.7-0.8-4.8-0.4
		c-0.4,0.1-0.7,0.2-1.1,0.3c-3.5,1.1-5.4,4-5.7,4.5c-0.1,0-0.2,0.1-0.3,0.1c-1.1,0.5-3,1.4-4.6,3.4c-1.9,2.3-2.4,4.8-2.5,6.3
		C16.7,27.5,16.7,27.9,16.7,28.1z"/>
	<path class="st1" d="M16.7,28.1c0.3,2.6,0.6,4.8,0.9,6.6c0.3,1.7,0.6,3.1,0.9,4.3c0.3,1.5,0.7,2.7,1,3.9c0.1,0.2,0.1,0.3,0.2,0.5
		c1.3,4,2.1,4.9,2.6,8.1c0.1,0.5,0.2,1,0.2,1.5c0.3,2.3,0.4,4.3-0.5,6.3c0,0.1-0.1,0.1-0.1,0.2c0,0.1-0.1,0.2-0.1,0.2
		c-0.7,1.3-1.5,1.9-1.3,2.7c0.2,0.9,1.5,1.6,4.8,2.2c2.7,0.5,12.7,2.3,14.3-1.3c0.2-0.4,0-0.3,0.2-1.1c0.1-0.2,0.4-1.7,1.3-3.2
		c0.5-0.9,1.3-1.8,2.2-2.5c1-0.7,2.5-1.1,4.9-1.4c-0.4-0.4-0.8-0.7-1.3-1.1c-0.9-0.7-3.6-2.7-6.8-2.3c-2.5,0.3-2.8,1.7-5.7,2.5
		c-0.5,0.1-2.1,0.5-3.9,0.4c-1.3-0.1-2.8-0.5-4.2-1.5c-0.5-0.4-1-0.8-1.3-1.3c-2.1-2.6-2-6.2-2-6.8c0-1.4,0.3-2.3,0.7-3.1
		c0.5-1.1,1.1-1.9,1.1-3.5c0.1-2.2-0.8-4.4-2.2-6.3c-1.5-2.1-3.7-3.8-5.8-4.9C16.7,27.5,16.7,27.9,16.7,28.1z"/>
	<path class="st1" d="M21.7,59.7c-0.7,1.3-1.5,1.9-1.3,2.7c0.2,0.9,1.5,1.6,4.8,2.2c2.7,0.5,12.7,2.3,14.3-1.3
		c0.2-0.4,0-0.3,0.2-1.1c0.1-0.2,0.4-1.7,1.3-3.2c-1.4-0.8-3.3-1.5-5.3-1.2c-2.6,0.3-3,1.8-6.1,2.6C28.9,60.6,25,61.6,21.7,59.7z"/>
	<path class="st2" d="M18.5,39c0.3,1.5,0.7,2.7,1,3.9C19.4,41.5,19.1,40.2,18.5,39z"/>
	<polygon class="st0" points="34.4,14.2 34.2,15 33.7,15.2 34.2,15.4 34.4,16.1 34.6,15.4 35.1,15.2 34.6,15 	"/>
	<path class="st1" d="M23.9,17.4c0.8,0.4,1.6,0.6,2.3,0.8c4.5,1.1,7.2-1.1,12,0.9c3.6,1.5,5.7,4.3,6.9,5.8
		c4.4,5.9,2.8,10.1,5.8,12.7c1.4,1.2,3.7,2.1,8,1.3c-0.2-0.4-0.5-0.9-0.8-1.5c-1.7-3.1-2.2-4.3-2.5-5.2c-0.1-0.2-0.1-0.4-0.2-0.6
		C55.1,31,55,30.3,54.8,29c-0.3-2.1-0.5-3.8-0.6-5c2-1.3,3.1-3.5,2.7-5.6c-0.2-1.5-1.2-2.8-2.4-3.5c-1.6-1-2.6-0.1-4.6-1
		c-1.9-0.8-2.3-1.9-3.4-2.7c-1.5-1.1-4.4-1.5-10.7,1.7c-1-0.3-2.7-0.8-4.8-0.4c-0.4,0.1-0.7,0.2-1.1,0.3c-3.5,1.1-5.4,4-5.7,4.5
		C24.1,17.4,24,17.4,23.9,17.4z"/>
	<path class="st1" d="M29.9,12.8c0.5,0.2,0.9,0.3,1.3,0.4c4.5,1.1,7.2-1.1,12,0.9c3.6,1.5,5.7,4.3,6.9,5.8c4.2,5.6,2.9,9.7,5.4,12.3
		c-0.1-0.2-0.1-0.4-0.2-0.6C55.1,31,55,30.3,54.8,29c-0.3-2.1-0.5-3.8-0.6-5c2-1.3,3.1-3.5,2.7-5.6c-0.2-1.5-1.2-2.8-2.4-3.5
		c-1.6-1-2.6-0.1-4.6-1c-1.9-0.8-2.3-1.9-3.4-2.7c-1.5-1.1-4.4-1.5-10.7,1.7c-1-0.3-2.7-0.8-4.8-0.4C30.6,12.6,30.2,12.7,29.9,12.8z
		"/>
	<g>
		<path class="st3" d="M21.9,59.3c3.7-1.3,6.4-3.2,7.9-4.3c0.2-0.2,0.4-0.3,0.6-0.5c2.3-1.7,2.1-2.1,4.5-3.5
			c0.4-0.3,0.8-0.5,1.2-0.7c1-0.6,1.8-0.9,2.3-1.4c0.1-0.1,0.2-0.2,0.3-0.3c0.2-0.2,0.3-0.4,0.4-0.6c0.1-0.2,0.2-0.4,0.3-0.7
			c0-0.1,0.1-0.2,0.1-0.3c0,0,0,0,0,0c0,0,0-0.1,0-0.1c0-0.1,0.1-0.2,0.1-0.4c0-0.1,0-0.2,0.1-0.3c0-0.1,0-0.2,0-0.3
			c0-0.3,0-0.6,0-0.8c0,0,0,0,0,0c0-0.1,0-0.1,0-0.2c0,0,0,0,0-0.1c0-0.3-0.1-0.6-0.2-0.8c-0.1-0.2-0.1-0.4-0.2-0.6
			c-0.1-0.2-0.2-0.4-0.3-0.6c0,0,0-0.1-0.1-0.1c-0.1-0.1-0.1-0.1-0.2-0.2c0,0,0,0,0,0c-0.5-0.5-1.1-0.9-1.7-1.1
			c-0.6-0.2-1.2-0.3-1.8-0.3c-0.2,0-0.5,0-0.7,0.1c-0.6,0.1-1.1,0.3-1.5,0.7c0,0,0,0-0.1,0.1c-0.9,0.9-0.6,2.2-0.9,3.7
			c-0.1,0.6-0.4,1.2-0.9,1.9c-0.1,0.2-0.3,0.4-1.2,1c-0.2,0.2-0.5,0.3-0.8,0.6c-1.5,1-2.8,1.8-4.2,2.6c-0.8,0.4-1.6,0.8-2.4,1.2
			C22.8,55.3,22.9,57.3,21.9,59.3z"/>
		<g>
			<g>
				<path class="st0" d="M31.9,34.9c0-0.4,0.1-0.7,0.2-1.1c0-0.1,0.1-0.3,0.1-0.4c0.1-0.1,0.1-0.3,0.2-0.4l0,0c0-0.1,0-0.1,0.1-0.2
					c0-0.1,0.1-0.2,0.1-0.2c0,0,0-0.1,0.1-0.1c0.1-0.1,0.1-0.2,0.2-0.3c0.1-0.1,0.1-0.2,0.2-0.2c0.5-0.7,1.2-1.2,2-1.6
					c0.5-0.2,1-0.4,1.5-0.5c0.2,0,0.4,0,0.6,0c0,0,0,0,0,0c0.2,0,0.4,0,0.6,0c0.5,0,0.9,0.2,1.4,0.3c0.9,0.4,1.7,0.9,2.3,1.7
					c0.6,0.8,1,1.7,1.2,2.7c0,0.3,0.1,0.5,0.1,0.8c0,0.3,0,0.5-0.1,0.8c0,0.1,0,0.1,0,0.2c-0.1,0.3-0.1,0.6-0.2,0.9
					c-0.1,0.2-0.2,0.4-0.2,0.6c0,0,0,0.1-0.1,0.1c-0.3,0.5-0.6,1-1,1.4c0,0,0,0-0.1,0.1c0,0,0,0,0,0c-0.2,0.3-0.4,0.6-0.5,0.9
					c0,0.1,0,0.2-0.1,0.2c0,0.1,0,0.3,0,0.4l0,1.4c0,0.3-0.3,0.6-0.6,0.6l-4.4,0.1c-0.3,0-0.6-0.2-0.6-0.5l-0.1-1.4
					c0-0.1,0-0.3-0.1-0.4c-0.1-0.4-0.4-0.9-0.7-1.2c-0.5-0.5-1-1.1-1.3-1.7c0-0.1-0.1-0.1-0.1-0.2c0-0.1-0.1-0.2-0.1-0.3
					c-0.1-0.3-0.2-0.5-0.2-0.8c0-0.1-0.1-0.3-0.1-0.5c0-0.1,0-0.1,0-0.2c0,0,0-0.1,0-0.1C31.8,35.5,31.8,35.2,31.9,34.9z"/>
				<path class="st4" d="M35,47.2l-0.1-4.3l5.3-0.2l0.1,4.3c0,0.1,0,0.3-0.1,0.4L35,47.6C35,47.5,35,47.3,35,47.2z"/>
				<path class="st4" d="M35,47.6l5.2-0.2c0,0,0,0.1,0,0.1c0,0.1-0.1,0.2-0.1,0.2c-0.3,0.6-0.9,0.9-1.2,1.1l0,0
					C38.7,49,38.5,49,38.3,49l-1.2,0c-0.2,0-0.4,0-0.6-0.1l0,0c-0.3-0.1-0.9-0.4-1.3-1c0-0.1-0.1-0.1-0.1-0.2
					C35.1,47.7,35,47.7,35,47.6z"/>
				<path class="st4" d="M34.8,46.5l5.5-0.2c0.2,0,0.3,0.1,0.3,0.3l0,0.2c0,0.2-0.1,0.3-0.3,0.3l-5.5,0.2c-0.2,0-0.3-0.1-0.3-0.3
					l0-0.2C34.6,46.7,34.7,46.5,34.8,46.5z"/>
				<path class="st4" d="M34.8,45.4l5.4-0.2c0.2,0,0.3,0.1,0.3,0.3l0,0.2c0,0.2-0.1,0.3-0.3,0.3l-5.4,0.2c-0.2,0-0.3-0.1-0.3-0.3
					l0-0.2C34.5,45.6,34.7,45.4,34.8,45.4z"/>
				<path class="st4" d="M34.8,44.3l5.4-0.2c0.2,0,0.3,0.1,0.3,0.3l0,0.2c0,0.2-0.1,0.3-0.3,0.3l-5.4,0.2c-0.2,0-0.3-0.1-0.3-0.3
					l0-0.2C34.5,44.4,34.6,44.3,34.8,44.3z"/>
			</g>
		</g>
		<path class="st3" d="M39.1,42.7c0.1,0.5,1.4,0.9,2.3,0.5c0.1-0.1,0.7-0.3,0.8-0.8c0.1-0.4-0.3-0.9-0.7-1
			C40.5,40.9,39,42.1,39.1,42.7z"/>
		<path class="st3" d="M38.6,44.6c0.2,0.2,0.4,0.4,1.9,0.5c1,0.1,1.2,0,1.4-0.1c0.1,0,0.5-0.3,0.5-0.8c0-0.3-0.2-0.5-0.3-0.6
			c-0.2-0.2-0.5-0.3-1.5-0.2c-1,0.1-2,0.2-2.1,0.6C38.4,44.3,38.5,44.6,38.6,44.6z"/>
		<path class="st3" d="M37.4,46.5c0.2,0.2,0.4,0.4,2,0.6c1.1,0.1,1.3,0.1,1.5-0.1c0.1-0.1,0.5-0.4,0.5-0.8c0-0.3-0.3-0.6-0.3-0.6
			c-0.2-0.2-0.6-0.4-1.7-0.3c-1.1,0.1-2.2,0.1-2.3,0.7C37.2,46.2,37.4,46.4,37.4,46.5z"/>
		<path class="st3" d="M37.4,48.2c0.2,0.2,0.4,0.4,1.8,0.6c0.9,0.2,1.1,0.1,1.3,0c0.1,0,0.5-0.3,0.4-0.7c0-0.3-0.3-0.5-0.3-0.6
			c-0.2-0.2-0.5-0.4-1.5-0.3c-1,0-1.9,0-2,0.5C37.2,47.9,37.4,48.1,37.4,48.2z"/>
		<path class="st3" d="M33.2,43c0.2,0.2,0.5,0.3,2.2,0.2c1.1-0.1,1.3-0.2,1.5-0.3c0.1-0.1,0.5-0.5,0.4-0.9c-0.1-0.3-0.4-0.5-0.4-0.6
			c-0.3-0.2-0.6-0.3-1.7,0c-1.1,0.3-2.1,0.5-2.2,1.1C32.9,42.7,33.1,42.9,33.2,43z"/>
		<g>
			<g class="st5">
				
					<ellipse transform="matrix(0.9995 -3.283797e-02 3.283797e-02 0.9995 -1.1406 1.2423)" class="st6" cx="37.3" cy="35.3" rx="15.1" ry="15.1"/>
			</g>
			<g class="st7">
				
					<ellipse transform="matrix(0.9995 -3.283789e-02 3.283789e-02 0.9995 -1.1413 1.2416)" class="st6" cx="37.2" cy="35.4" rx="11.6" ry="11.6"/>
			</g>
			<g class="st8">
				
					<ellipse transform="matrix(0.9995 -3.283799e-02 3.283799e-02 0.9995 -1.1413 1.2416)" class="st6" cx="37.2" cy="35.4" rx="7.8" ry="7.8"/>
			</g>
		</g>
	</g>
</g>
</svg>
